<svg xmlns="http://www.w3.org/2000/svg" width="10" height="18" viewBox="0 0 10 18" fill="none">
  <path d="M2.81818 4.2H6.45455M2.81818 4.2V6.2H6.45455V4.2M2.81818 4.2V3C2.81818 1.8 3.90909 1 5 1H9C9 1 6.45455 1.8 6.45455 3.4V4.2M1 7C1 6.78783 1.07662 6.58434 1.21301 6.43431C1.3494 6.28429 1.53439 6.2 1.72727 6.2H7.54545C7.73834 6.2 7.92332 6.28429 8.05971 6.43431C8.1961 6.58434 8.27273 6.78783 8.27273 7V14.6C8.27273 14.6 8.27273 17 6.09091 17H3.18182C1 17 1 14.6 1 14.6V7Z" stroke="white" stroke-linecap="round" stroke-linejoin="round"/>
</svg>