<svg xmlns="http://www.w3.org/2000/svg" width="16" height="16" viewBox="0 0 16 16" fill="none">
  <path d="M7.5 9.21053C6.96429 9.21053 6.50893 9.01096 6.13393 8.61184C5.75893 8.21272 5.57143 7.72807 5.57143 7.15789V3.05263C5.57143 2.48246 5.75893 1.99781 6.13393 1.59868C6.50893 1.19956 6.96429 1 7.5 1C8.03571 1 8.49107 1.19956 8.86607 1.59868C9.24107 1.99781 9.42857 2.48246 9.42857 3.05263V7.15789C9.42857 7.72807 9.24107 8.21272 8.86607 8.61184C8.49107 9.01096 8.03571 9.21053 7.5 9.21053ZM6.85714 14V11.8961C5.74286 11.7364 4.82143 11.2061 4.09286 10.3053C3.36429 9.40439 3 8.35526 3 7.15789H4.28571C4.28571 8.10439 4.59911 8.91118 5.22589 9.57829C5.85268 10.2454 6.61071 10.5789 7.5 10.5789C8.38929 10.5789 9.14732 10.2454 9.77411 9.57829C10.4009 8.91118 10.7143 8.10439 10.7143 7.15789H12C12 8.35526 11.6357 9.40439 10.9071 10.3053C10.1786 11.2061 9.25714 11.7364 8.14286 11.8961V14H6.85714Z" fill="white"/>
</svg>