<svg xmlns="http://www.w3.org/2000/svg" width="7" height="16" viewBox="0 0 7 16" fill="none">
  <path d="M6.93645 15.1981C6.85616 16.2983 0.141744 16.2358 0.0564683 15.1981C-0.189784 9.53468 0.794314 7.39896 1.10534 5.45064C1.18061 4.97993 0.517988 4.1432 0.352857 3.56115C-2.86847e-07 2.33123 0.505444 1.25638 0 0.242191L0.729101 0C1.14048 1.41106 2.22581 2.41903 3.5 2.41903C4.77423 2.41903 5.85952 1.41106 6.2709 0L7 0.242157C6.49456 1.25638 7 2.3312 6.64714 3.56111C6.47992 4.1432 5.81773 4.9799 5.89466 5.45064C6.19856 7.39934 7.1827 9.53506 6.93645 15.1981Z" fill="white"/>
</svg>