<svg width="16" height="16" viewBox="0 0 16 16" fill="none" xmlns="http://www.w3.org/2000/svg">
<path d="M8.8 2.4C10.568 2.4 12 3.832 12 5.6C12 6.8 11.36 7.816 10.4 8.368V7.392C10.888 6.952 11.2 6.312 11.2 5.6C11.2 4.272 10.128 3.2 8.8 3.2C7.472 3.2 6.4 4.272 6.4 5.6C6.4 6.312 6.712 6.952 7.2 7.392V8.368C6.24 7.816 5.6 6.8 5.6 5.6C5.6 3.832 7.032 2.4 8.8 2.4ZM14.4 14.8C14.376 15.456 13.856 15.976 13.2 16H8.8C8.496 16 8.208 15.88 8 15.656L4.8 12.296L5.392 11.68C5.544 11.512 5.76 11.424 6 11.424H6.16L8 12.8V5.6C8 5.16 8.36 4.8 8.8 4.8C9.24 4.8 9.6 5.16 9.6 5.6V9.176L10.568 9.28L13.72 11.032C14.144 11.224 14.4 11.648 14.4 12.112V14.8ZM14.4 0H1.6C0.72 0 0 0.72 0 1.6V8C0 8.42435 0.168571 8.83131 0.468629 9.13137C0.768687 9.43143 1.17565 9.6 1.6 9.6H4.8V8H1.6V1.6H14.4V8H12.8V9.6H14.4V9.568L14.432 9.6C15.304 9.6 16 8.872 16 8V1.6C16 1.17565 15.8314 0.768687 15.5314 0.468629C15.2313 0.168571 14.8243 0 14.4 0Z" fill="white"/>
</svg>
