<svg width="39" height="34" viewBox="0 0 39 34" fill="none" xmlns="http://www.w3.org/2000/svg">
<path d="M19.5 34C20.9438 34 22.125 32.8 22.125 31.3333H16.875C16.875 32.8 18.0562 34 19.5 34ZM27.375 26V19.3333C27.375 15.24 25.2356 11.8133 21.4688 10.9067V10C21.4688 8.89333 20.5894 8 19.5 8C18.4106 8 17.5312 8.89333 17.5312 10V10.9067C13.7775 11.8133 11.625 15.2267 11.625 19.3333V26L9 28.6667V30H30V28.6667L27.375 26ZM24.75 27.3333H14.25V19.3333C14.25 16.0267 16.2319 13.3333 19.5 13.3333C22.7681 13.3333 24.75 16.0267 24.75 19.3333V27.3333Z" fill="#BB3C41"/>
<circle cx="29" cy="10" r="10" fill="#CC5F5F"/>
<path d="M25.6368 12.1594V11.1179L29.7056 5.28117H31.3767V10.9605H32.5029V12.1594H31.3767V14H30.0205V12.1594H25.6368ZM30.081 6.68587L27.2232 10.9605H30.081V6.68587Z" fill="white"/>
</svg>
