<svg width="24" height="24" viewBox="0 0 24 24" fill="none" xmlns="http://www.w3.org/2000/svg">
<path d="M12.6 6V4H21V6H12.6ZM12.6 10V8H21V10H12.6ZM12.6 14V12H21V14H12.6ZM6.3 13C5.425 13 4.68125 12.7083 4.06875 12.125C3.45625 11.5417 3.15 10.8333 3.15 10C3.15 9.16667 3.45625 8.45833 4.06875 7.875C4.68125 7.29167 5.425 7 6.3 7C7.175 7 7.91875 7.29167 8.53125 7.875C9.14375 8.45833 9.45 9.16667 9.45 10C9.45 10.8333 9.14375 11.5417 8.53125 12.125C7.91875 12.7083 7.175 13 6.3 13ZM0 19V17.1C0 16.75 0.0875 16.4167 0.2625 16.1C0.4375 15.7833 0.6825 15.5333 0.9975 15.35C1.785 14.9 2.62062 14.5625 3.50437 14.3375C4.38812 14.1125 5.32 14 6.3 14C7.28 14 8.21187 14.1125 9.09562 14.3375C9.97937 14.5625 10.815 14.9 11.6025 15.35C11.9175 15.5333 12.1625 15.7833 12.3375 16.1C12.5125 16.4167 12.6 16.75 12.6 17.1V19H0Z" fill="#BB3C41"/>
</svg>
