<svg width="24" height="25" viewBox="0 0 24 25" fill="none" xmlns="http://www.w3.org/2000/svg">
<path d="M14 6.5V4.5H22V6.5H14ZM14 10.5V8.5H22V10.5H14ZM14 14.5V12.5H22V14.5H14ZM8 13.5C7.16667 13.5 6.45833 13.2083 5.875 12.625C5.29167 12.0417 5 11.3333 5 10.5C5 9.66667 5.29167 8.95833 5.875 8.375C6.45833 7.79167 7.16667 7.5 8 7.5C8.83333 7.5 9.54167 7.79167 10.125 8.375C10.7083 8.95833 11 9.66667 11 10.5C11 11.3333 10.7083 12.0417 10.125 12.625C9.54167 13.2083 8.83333 13.5 8 13.5ZM2 19.5V17.6C2 17.25 2.08333 16.9167 2.25 16.6C2.41667 16.2833 2.65 16.0333 2.95 15.85C3.7 15.4 4.49583 15.0625 5.3375 14.8375C6.17917 14.6125 7.06667 14.5 8 14.5C8.93333 14.5 9.82083 14.6125 10.6625 14.8375C11.5042 15.0625 12.3 15.4 13.05 15.85C13.35 16.0333 13.5833 16.2833 13.75 16.6C13.9167 16.9167 14 17.25 14 17.6V19.5H2Z" fill="#BB3C41"/>
</svg>
