<svg xmlns="http://www.w3.org/2000/svg" width="17" height="16" viewBox="0 0 17 16" fill="none">
  <path d="M3.82601 14C3.45934 14 3.14545 13.8694 2.88434 13.6083C2.62323 13.3472 2.49268 13.0333 2.49268 12.6667V3.33333C2.49268 2.96667 2.62323 2.65278 2.88434 2.39167C3.14545 2.13056 3.45934 2 3.82601 2H13.1593C13.526 2 13.8399 2.13056 14.101 2.39167C14.3621 2.65278 14.4927 2.96667 14.4927 3.33333V12.6667C14.4927 13.0333 14.3621 13.3472 14.101 13.6083C13.8399 13.8694 13.526 14 13.1593 14H3.82601ZM3.82601 12.6667H13.1593V3.33333H3.82601V12.6667ZM4.49268 11.3333H12.4927L9.99268 8L7.99268 10.6667L6.49268 8.66667L4.49268 11.3333Z" fill="white"/>
</svg>