<svg width="24" height="25" viewBox="0 0 24 25" fill="none" xmlns="http://www.w3.org/2000/svg">
<path d="M6.61329 23.784C6.05915 24.2231 5.49296 24.2353 4.91472 23.8206C4.33648 23.4059 4.14374 22.857 4.33648 22.174L6.39645 15.4044L1.15618 11.6354C0.577938 11.2206 0.403503 10.6718 0.63287 9.9887C0.861274 9.30564 1.32483 8.96411 2.02353 8.96411H8.49257L10.5887 1.93838C10.7091 1.59685 10.8961 1.33436 11.1496 1.15091C11.4021 0.968435 11.6729 0.877197 11.962 0.877197C12.2511 0.877197 12.5219 0.968435 12.7744 1.15091C13.0279 1.33436 13.2148 1.59685 13.3353 1.93838L15.4314 8.96411H21.9005C22.5992 8.96411 23.0632 9.30564 23.2926 9.9887C23.521 10.6718 23.3461 11.2206 22.7678 11.6354L17.5275 15.4044L19.5875 22.174C19.7803 22.857 19.5875 23.4059 19.0093 23.8206C18.431 24.2353 17.8648 24.2231 17.3107 23.784L11.962 19.6491L6.61329 23.784Z" fill="#FFB133"/>
</svg>
