<svg width="12" height="18" viewBox="0 0 12 18" fill="none" xmlns="http://www.w3.org/2000/svg">
<path d="M1.00346 3.51685H8.10173C8.48965 3.51685 8.79404 3.84957 8.75961 4.23595V4.23595M1.00346 3.51685L1.81245 11.5955M1.00346 3.51685C1.00346 3.51685 0.733705 1.7191 4.95851 1.7191M8.0147 11.5955H1.81245M8.0147 11.5955L8.71996 15.8359C8.82133 16.4454 8.35132 17 7.73351 17H2.16429C1.55304 17 1.08482 16.4565 1.17531 15.852L1.81245 11.5955M8.0147 11.5955L8.19936 10.5232M4.95851 1.7191C9.18332 1.7191 8.91357 3.51685 8.91357 3.51685M4.95851 1.7191V1M8.75961 4.23595H9.58197C10.0357 4.23595 10.432 4.54124 10.5101 4.98824C10.6678 5.89143 10.825 7.40497 10.3518 8.37079C9.82877 9.4383 8.19936 10.5232 8.19936 10.5232M8.75961 4.23595L8.19936 10.5232" stroke="#BB3C40" stroke-width="1.5"/>
<path d="M5.0122 13C4.46612 13 4.02344 13.4427 4.02344 13.9888C4.02344 14.5348 4.46612 14.9775 5.0122 14.9775C5.55828 14.9775 6.00097 14.5348 6.00097 13.9888C6.00097 13.4427 5.55828 13 5.0122 13Z" stroke="black" stroke-width="1.5"/>
</svg>
