<svg width="12" height="18" viewBox="0 0 12 18" fill="none" xmlns="http://www.w3.org/2000/svg">
<path d="M3.09278 12.4008C1.90311 12.8538 1 13.5564 1 14.4194C1 15.9677 3.99041 17 6.16129 17C8.33217 17 11.3226 16.1865 11.3226 14.4194C11.3226 13.4424 10.4337 12.7568 9.25806 12.3391M6.16129 14.4194C6.16129 14.4194 1 9.01179 1 6.16129C1 3.31079 3.31079 1 6.16129 1C9.01179 1 11.3226 3.31079 11.3226 6.16129C11.3226 9.01179 6.16129 14.4194 6.16129 14.4194ZM6.16129 4.09677C5.02109 4.09677 4.09677 5.02109 4.09677 6.16129C4.09677 7.30149 5.02109 8.22581 6.16129 8.22581C7.30149 8.22581 8.22581 7.30149 8.22581 6.16129C8.22581 5.02109 7.30149 4.09677 6.16129 4.09677Z" stroke="#BB3C40" stroke-linecap="round" stroke-linejoin="round"/>
</svg>
