<svg xmlns="http://www.w3.org/2000/svg" width="16" height="16" viewBox="0 0 16 16" fill="none">
  <path fill-rule="evenodd" clip-rule="evenodd" d="M11 3H4.71429C2.49229 3 1.3805 3 0.690643 3.71419C-4.68322e-08 4.42756 0 5.57725 0 7.875V11.125C0 13.4228 -4.68322e-08 14.5724 0.690643 15.2858C1.3805 16 2.49229 16 4.71429 16H11V3Z" fill="#D2D2D2"/>
  <path d="M16.0001 7.89888V11.1393C16.0001 13.4303 16.0001 14.5758 15.2969 15.2879C14.6369 15.9563 13.5985 15.9976 11.6002 16H11.2002V3.03821H11.6002C13.5985 3.04064 14.6369 3.08115 15.2969 3.74949C16.0001 4.46239 16.0001 5.60708 16.0001 7.89888ZM9.13302 3.03821L10.8554 1.00321C10.9529 0.880217 10.9993 0.723649 10.9849 0.566608C10.9705 0.409566 10.8963 0.264358 10.7781 0.161681C10.6599 0.0590038 10.5068 0.00690426 10.3514 0.0163961C10.1959 0.0258879 10.0502 0.0962272 9.945 0.212544L8.00024 2.51002L6.05627 0.212544C5.95273 0.090077 5.80539 0.0142769 5.64667 0.00181897C5.48794 -0.0106389 5.33082 0.041266 5.20989 0.146115C5.08895 0.250964 5.0141 0.400169 5.0018 0.560906C4.98949 0.721643 5.04075 0.880746 5.14429 1.00321L6.86826 3.03821H9.13302Z" fill="#18181B"/>
  <path d="M9.5 5C9.63261 5 9.75979 5.07024 9.85355 5.19526C9.94732 5.32029 10 5.48986 10 5.66667C10 5.84348 9.94732 6.01305 9.85355 6.13807C9.75979 6.2631 9.63261 6.33333 9.5 6.33333C9.36739 6.33333 9.24021 6.2631 9.14645 6.13807C9.05268 6.01305 9 5.84348 9 5.66667C9 5.48986 9.05268 5.32029 9.14645 5.19526C9.24021 5.07024 9.36739 5 9.5 5ZM9.5 7.66667C9.63261 7.66667 9.75979 7.7369 9.85355 7.86193C9.94732 7.98695 10 8.15652 10 8.33333C10 8.51014 9.94732 8.67971 9.85355 8.80474C9.75979 8.92976 9.63261 9 9.5 9C9.36739 9 9.24021 8.92976 9.14645 8.80474C9.05268 8.67971 9 8.51014 9 8.33333C9 8.15652 9.05268 7.98695 9.14645 7.86193C9.24021 7.7369 9.36739 7.66667 9.5 7.66667Z" fill="black"/>
</svg>