<svg xmlns="http://www.w3.org/2000/svg" width="16" height="16" viewBox="0 0 16 16" fill="none">
  <path d="M11.3333 14.3378C10.5956 14.3378 10 13.5912 10 12.6668C10 11.7512 10.5956 11.0046 11.3333 11.0046C12.0711 11.0046 12.6667 11.7512 12.6667 12.6668C12.6667 13.5912 12.0711 14.3378 11.3333 14.3378ZM8.00001 7.33356C6.89778 7.33356 6.00001 6.58692 6.00001 5.67139C6.00001 4.74697 6.89778 4.00032 8.00001 4.00032C9.10223 4.00032 10 4.74697 10 5.67139C10 6.58692 9.10223 7.33356 8.00001 7.33356ZM4.66667 14.3378C3.9289 14.3378 3.33334 13.5912 3.33334 12.6668C3.33334 11.7512 3.9289 11.0046 4.66667 11.0046C5.40445 11.0046 6.00001 11.7512 6.00001 12.6668C6.00001 13.5912 5.40445 14.3378 4.66667 14.3378ZM8.00001 4.66697C8.36445 4.66697 8.66667 4.96918 8.66667 5.33362C8.66667 5.69805 8.36445 6.00027 8.00001 6.00027C7.63556 6.00027 7.33334 5.69805 7.33334 5.33362C7.33334 4.96918 7.63556 4.66697 8.00001 4.66697ZM14 8.00021C13.7156 8.00021 13.44 8.06243 13.1911 8.17799C12.7644 7.63578 12.1867 7.17357 11.4933 6.81802C12 6.10693 12.3022 5.24473 12.3022 4.31142V4.25809C13.2711 4.05365 14 3.19145 14 2.15148C14 0.96929 13.0311 0.000427023 11.8489 0.000427023C11.2356 0.000427023 10.6667 0.258198 10.2933 0.667076C9.60778 0.231388 8.8123 0 8.00001 0C7.18771 0 6.39223 0.231388 5.70667 0.667076C5.33334 0.258198 4.76445 0.000427023 4.15112 0.000427023C2.9689 0.000427023 2.00001 0.96929 2.00001 2.15148C2.00001 3.18256 2.7289 4.04476 3.6889 4.25809V4.31142C3.6889 5.24473 4.00001 6.11582 4.49779 6.81802C3.81334 7.17357 3.23556 7.63578 2.8089 8.17799C2.50513 8.04115 2.17189 7.98273 1.83969 8.00806C1.50749 8.0334 1.18696 8.14169 0.907465 8.323C0.627966 8.50432 0.398432 8.75287 0.239892 9.04588C0.0813519 9.3389 -0.00112682 9.66701 1.16274e-05 10.0002C1.16274e-05 11.1112 0.8889 12.0001 2.00001 12.0001H2.05334C2.01779 12.2134 2.00001 12.4445 2.00001 12.6668C2.00001 14.5067 3.19112 16 4.66667 16C5.56445 16 6.35556 15.44 6.84445 14.5867C7.21778 14.64 7.60001 14.6667 8.00001 14.6667C8.40001 14.6667 8.78223 14.64 9.15556 14.5867C9.64445 15.44 10.4356 16 11.3333 16C12.8089 16 14 14.5067 14 12.6668C14 12.4445 13.9822 12.2134 13.9467 12.0001H14C15.1111 12.0001 16 11.1112 16 10.0002C16 8.88908 15.1111 8.00021 14 8.00021Z" fill="#18181B"/>
</svg>