<svg xmlns="http://www.w3.org/2000/svg" width="16" height="16" viewBox="0 0 16 16" fill="none">
  <path d="M8.5 7.5C8.87813 7.5 9.20182 7.37271 9.47109 7.11812C9.74036 6.86354 9.875 6.5575 9.875 6.2C9.875 5.8425 9.74036 5.53646 9.47109 5.28187C9.20182 5.02729 8.87813 4.9 8.5 4.9C8.12188 4.9 7.79818 5.02729 7.52891 5.28187C7.25964 5.53646 7.125 5.8425 7.125 6.2C7.125 6.5575 7.25964 6.86354 7.52891 7.11812C7.79818 7.37271 8.12188 7.5 8.5 7.5ZM8.5 12.2775C9.89792 11.0642 10.9349 9.96187 11.6109 8.97062C12.287 7.97937 12.625 7.09917 12.625 6.33C12.625 5.14917 12.2268 4.18229 11.4305 3.42937C10.6341 2.67646 9.65729 2.3 8.5 2.3C7.34271 2.3 6.36589 2.67646 5.56953 3.42937C4.77318 4.18229 4.375 5.14917 4.375 6.33C4.375 7.09917 4.71302 7.97937 5.38906 8.97062C6.0651 9.96187 7.10208 11.0642 8.5 12.2775ZM8.5 14C6.65521 12.5158 5.27734 11.1373 4.36641 9.86438C3.45547 8.59146 3 7.41333 3 6.33C3 4.705 3.55286 3.41042 4.65859 2.44625C5.76432 1.48208 7.04479 1 8.5 1C9.95521 1 11.2357 1.48208 12.3414 2.44625C13.4471 3.41042 14 4.705 14 6.33C14 7.41333 13.5445 8.59146 12.6336 9.86438C11.7227 11.1373 10.3448 12.5158 8.5 14Z" fill="#AEAEAE"/>
</svg>