<svg xmlns="http://www.w3.org/2000/svg" width="38" height="38" viewBox="0 0 38 38" fill="none">
  <path d="M19 1C9.05887 1 1 9.05887 1 19C1 28.9411 9.05887 37 19 37C28.9411 37 37 28.9411 37 19C37 9.05887 28.9411 1 19 1Z" fill="white"/>
  <path d="M6.53846 30.0769C6.53846 30.0769 7.23077 23.1538 19 23.1538C30.7692 23.1538 31.4615 30.0769 31.4615 30.0769M12.0769 12.0769C12.0769 8.25341 15.1765 5.15385 19 5.15385C22.8235 5.15385 25.9231 8.25341 25.9231 12.0769C25.9231 15.9004 22.8235 19 19 19C15.1765 19 12.0769 15.9004 12.0769 12.0769ZM1 19C1 9.05887 9.05887 1 19 1C28.9411 1 37 9.05887 37 19C37 28.9411 28.9411 37 19 37C9.05887 37 1 28.9411 1 19Z" stroke="#BB3C40" stroke-width="2" stroke-linecap="round"/>
</svg>