<svg xmlns="http://www.w3.org/2000/svg" width="40" height="40" viewBox="0 0 40 40" fill="none">
  <path d="M20.5 20.5C18.6438 20.5 17.0547 19.8391 15.7328 18.5172C14.4109 17.1953 13.75 15.6062 13.75 13.75C13.75 11.8938 14.4109 10.3047 15.7328 8.98281C17.0547 7.66094 18.6438 7 20.5 7C22.3562 7 23.9453 7.66094 25.2672 8.98281C26.5891 10.3047 27.25 11.8938 27.25 13.75C27.25 15.6062 26.5891 17.1953 25.2672 18.5172C23.9453 19.8391 22.3562 20.5 20.5 20.5ZM7 34V29.275C7 28.3188 7.24609 27.4398 7.73828 26.6383C8.23047 25.8367 8.88437 25.225 9.7 24.8031C11.4437 23.9312 13.2156 23.2773 15.0156 22.8414C16.8156 22.4055 18.6438 22.1875 20.5 22.1875C22.3562 22.1875 24.1844 22.4055 25.9844 22.8414C27.7844 23.2773 29.5562 23.9312 31.3 24.8031C32.1156 25.225 32.7695 25.8367 33.2617 26.6383C33.7539 27.4398 34 28.3188 34 29.275V34H7ZM10.375 30.625H30.625V29.275C30.625 28.9656 30.5477 28.6844 30.393 28.4312C30.2383 28.1781 30.0344 27.9813 29.7812 27.8406C28.2625 27.0813 26.7297 26.5117 25.1828 26.132C23.6359 25.7523 22.075 25.5625 20.5 25.5625C18.925 25.5625 17.3641 25.7523 15.8172 26.132C14.2703 26.5117 12.7375 27.0813 11.2188 27.8406C10.9656 27.9813 10.7617 28.1781 10.607 28.4312C10.4523 28.6844 10.375 28.9656 10.375 29.275V30.625ZM20.5 17.125C21.4281 17.125 22.2227 16.7945 22.8836 16.1336C23.5445 15.4727 23.875 14.6781 23.875 13.75C23.875 12.8219 23.5445 12.0273 22.8836 11.3664C22.2227 10.7055 21.4281 10.375 20.5 10.375C19.5719 10.375 18.7773 10.7055 18.1164 11.3664C17.4555 12.0273 17.125 12.8219 17.125 13.75C17.125 14.6781 17.4555 15.4727 18.1164 16.1336C18.7773 16.7945 19.5719 17.125 20.5 17.125Z" fill="#BB3C41"/>
</svg>